<mxfile host="65bd71144e">
    <diagram id="IUjXl557PNapDOKqYwfZ" name="Page-1">
        <mxGraphModel dx="560" dy="357" grid="1" gridSize="10" guides="1" tooltips="1" connect="1" arrows="1" fold="1" page="1" pageScale="1" pageWidth="827" pageHeight="1169" math="0" shadow="0">
            <root>
                <mxCell id="0"/>
                <mxCell id="1" parent="0"/>
                <mxCell id="2" value="" style="rounded=1;whiteSpace=wrap;html=1;" parent="1" vertex="1">
                    <mxGeometry x="179" y="120" width="470" height="400" as="geometry"/>
                </mxCell>
                <mxCell id="3" value="City Search" style="rounded=0;whiteSpace=wrap;html=1;" parent="1" vertex="1">
                    <mxGeometry x="304" y="165" width="191" height="25" as="geometry"/>
                </mxCell>
                <mxCell id="27" value="" style="edgeStyle=none;html=1;exitX=1;exitY=0.75;exitDx=0;exitDy=0;" edge="1" parent="1" source="24">
                    <mxGeometry relative="1" as="geometry">
                        <mxPoint x="670" y="110" as="targetPoint"/>
                    </mxGeometry>
                </mxCell>
                <mxCell id="4" value="City Name" style="text;html=1;strokeColor=none;fillColor=none;align=center;verticalAlign=middle;whiteSpace=wrap;rounded=0;" parent="1" vertex="1">
                    <mxGeometry x="354" y="250" width="150" height="50" as="geometry"/>
                </mxCell>
                <mxCell id="5" value="&lt;font color=&quot;#ffffff&quot;&gt;&lt;br&gt;&lt;br&gt;&lt;/font&gt;&lt;span class=&quot;kvov objProp&quot; style=&quot;display: block ; padding-left: 20px ; margin-left: -20px ; position: relative ; font-family: monospace ; font-size: 13px ; font-style: normal ; font-weight: 400 ; letter-spacing: normal ; text-indent: 0px ; text-transform: none ; word-spacing: 0px&quot;&gt;&lt;font color=&quot;#ffffff&quot;&gt;&quot;&lt;span class=&quot;k&quot;&gt;temp&lt;/span&gt;&quot;:&amp;nbsp;&lt;span class=&quot;n&quot; style=&quot;font-weight: bold&quot;&gt;292.13&lt;/span&gt;,&lt;/font&gt;&lt;/span&gt;&lt;span class=&quot;kvov objProp&quot; style=&quot;display: block ; padding-left: 20px ; margin-left: -20px ; position: relative ; font-family: monospace ; font-size: 13px ; font-style: normal ; font-weight: 400 ; letter-spacing: normal ; text-indent: 0px ; text-transform: none ; word-spacing: 0px&quot;&gt;&lt;font color=&quot;#ffffff&quot;&gt;&quot;&lt;span class=&quot;k&quot;&gt;feels_like&lt;/span&gt;&quot;:&amp;nbsp;&lt;span class=&quot;n&quot; style=&quot;font-weight: bold&quot;&gt;291.57&lt;/span&gt;,&lt;/font&gt;&lt;/span&gt;&lt;span class=&quot;kvov objProp&quot; style=&quot;display: block ; padding-left: 20px ; margin-left: -20px ; position: relative ; font-family: monospace ; font-size: 13px ; font-style: normal ; font-weight: 400 ; letter-spacing: normal ; text-indent: 0px ; text-transform: none ; word-spacing: 0px&quot;&gt;&lt;font color=&quot;#ffffff&quot;&gt;&quot;&lt;span class=&quot;k&quot;&gt;temp_min&lt;/span&gt;&quot;:&amp;nbsp;&lt;span class=&quot;n&quot; style=&quot;font-weight: bold&quot;&gt;290.21&lt;/span&gt;,&lt;/font&gt;&lt;/span&gt;&lt;span class=&quot;kvov objProp&quot; style=&quot;display: block ; padding-left: 20px ; margin-left: -20px ; position: relative ; font-family: monospace ; font-size: 13px ; font-style: normal ; font-weight: 400 ; letter-spacing: normal ; text-indent: 0px ; text-transform: none ; word-spacing: 0px&quot;&gt;&lt;font color=&quot;#ffffff&quot;&gt;&quot;&lt;span class=&quot;k&quot;&gt;temp_max&lt;/span&gt;&quot;:&amp;nbsp;&lt;span class=&quot;n&quot; style=&quot;font-weight: bold&quot;&gt;293.91&lt;/span&gt;,&lt;/font&gt;&lt;/span&gt;&lt;span class=&quot;kvov objProp&quot; style=&quot;display: block ; padding-left: 20px ; margin-left: -20px ; position: relative ; font-family: monospace ; font-size: 13px ; font-style: normal ; font-weight: 400 ; letter-spacing: normal ; text-indent: 0px ; text-transform: none ; word-spacing: 0px&quot;&gt;&lt;font color=&quot;#ffffff&quot;&gt;&quot;&lt;span class=&quot;k&quot;&gt;pressure&lt;/span&gt;&quot;:&amp;nbsp;&lt;span class=&quot;n&quot; style=&quot;font-weight: bold&quot;&gt;1025&lt;/span&gt;,&lt;/font&gt;&lt;/span&gt;&lt;span class=&quot;kvov objProp&quot; style=&quot;display: block ; padding-left: 20px ; margin-left: -20px ; position: relative ; font-family: monospace ; font-size: 13px ; font-style: normal ; font-weight: 400 ; letter-spacing: normal ; text-indent: 0px ; text-transform: none ; word-spacing: 0px&quot;&gt;&lt;font color=&quot;#ffffff&quot;&gt;&quot;&lt;span class=&quot;k&quot;&gt;humidity&lt;/span&gt;&quot;:&amp;nbsp;&lt;span class=&quot;n&quot; style=&quot;font-weight: bold&quot;&gt;57&lt;/span&gt;&lt;/font&gt;&lt;/span&gt;&lt;br&gt;" style="text;html=1;strokeColor=none;fillColor=none;align=center;verticalAlign=middle;whiteSpace=wrap;rounded=0;" parent="1" vertex="1">
                    <mxGeometry x="200" y="290" width="220" height="120" as="geometry"/>
                </mxCell>
                <mxCell id="6" value="Weather Pic" style="rounded=1;whiteSpace=wrap;html=1;fontColor=#FFFFFF;" parent="1" vertex="1">
                    <mxGeometry x="440" y="310" width="160" height="80" as="geometry"/>
                </mxCell>
                <mxCell id="7" value="" style="endArrow=classic;html=1;fontColor=#FFFFFF;" parent="1" edge="1">
                    <mxGeometry width="50" height="50" relative="1" as="geometry">
                        <mxPoint x="340" y="90" as="sourcePoint"/>
                        <mxPoint x="390" y="150" as="targetPoint"/>
                    </mxGeometry>
                </mxCell>
                <mxCell id="8" value="Input Component: onChange event" style="text;html=1;strokeColor=none;fillColor=none;align=center;verticalAlign=middle;whiteSpace=wrap;rounded=0;fontColor=#FFFFFF;" parent="1" vertex="1">
                    <mxGeometry x="179" y="50" width="231" height="40" as="geometry"/>
                </mxCell>
                <mxCell id="9" value="Location Stretch goal state set by browser" style="rounded=1;whiteSpace=wrap;html=1;fontColor=#FFFFFF;" parent="1" vertex="1">
                    <mxGeometry x="200" y="560" width="250" height="60" as="geometry"/>
                </mxCell>
                <mxCell id="10" value="Weather State set by the input onChange event" style="rounded=1;whiteSpace=wrap;html=1;fontColor=#FFFFFF;" parent="1" vertex="1">
                    <mxGeometry x="10" y="110" width="150" height="140" as="geometry"/>
                </mxCell>
                <mxCell id="11" value="Text" style="text;html=1;strokeColor=none;fillColor=none;align=center;verticalAlign=middle;whiteSpace=wrap;rounded=0;fontColor=#FFFFFF;" parent="1" vertex="1">
                    <mxGeometry x="390" y="390" width="60" height="30" as="geometry"/>
                </mxCell>
                <mxCell id="12" value="Your location is ........." style="text;html=1;strokeColor=none;fillColor=none;align=center;verticalAlign=middle;whiteSpace=wrap;rounded=0;fontColor=#FFFFFF;" parent="1" vertex="1">
                    <mxGeometry x="304" y="450" width="250" height="30" as="geometry"/>
                </mxCell>
                <mxCell id="13" value="" style="endArrow=classic;html=1;fontColor=#FFFFFF;" parent="1" edge="1">
                    <mxGeometry width="50" height="50" relative="1" as="geometry">
                        <mxPoint x="630" y="320" as="sourcePoint"/>
                        <mxPoint x="680" y="270" as="targetPoint"/>
                    </mxGeometry>
                </mxCell>
                <mxCell id="14" value="conditional render dependent on weather state" style="rounded=1;whiteSpace=wrap;html=1;fontColor=#FFFFFF;" parent="1" vertex="1">
                    <mxGeometry x="700" y="210" width="120" height="60" as="geometry"/>
                </mxCell>
                <mxCell id="15" value="" style="endArrow=classic;html=1;fontColor=#FFFFFF;" parent="1" source="5" edge="1">
                    <mxGeometry width="50" height="50" relative="1" as="geometry">
                        <mxPoint x="90" y="480" as="sourcePoint"/>
                        <mxPoint x="140" y="430" as="targetPoint"/>
                    </mxGeometry>
                </mxCell>
                <mxCell id="17" value="forcast component&lt;br&gt;props =&lt;br&gt;key&lt;br&gt;temp&lt;br&gt;feels like&lt;br&gt;min&lt;br&gt;max&lt;br&gt;press&lt;br&gt;humidity&lt;br&gt;" style="text;html=1;strokeColor=none;fillColor=none;align=center;verticalAlign=middle;whiteSpace=wrap;rounded=0;fontColor=#FFFFFF;" parent="1" vertex="1">
                    <mxGeometry x="30" y="370" width="130" height="170" as="geometry"/>
                </mxCell>
                <mxCell id="18" value="" style="endArrow=classic;html=1;fontColor=#FFFFFF;" parent="1" edge="1">
                    <mxGeometry width="50" height="50" relative="1" as="geometry">
                        <mxPoint x="579" y="370.00470588235294" as="sourcePoint"/>
                        <mxPoint x="710" y="460" as="targetPoint"/>
                    </mxGeometry>
                </mxCell>
                <mxCell id="19" value="image component&lt;br&gt;props =&lt;br&gt;weather.main" style="text;html=1;strokeColor=none;fillColor=none;align=center;verticalAlign=middle;whiteSpace=wrap;rounded=0;fontColor=#FFFFFF;" parent="1" vertex="1">
                    <mxGeometry x="670" y="470" width="131" height="40" as="geometry"/>
                </mxCell>
                <mxCell id="20" value="" style="endArrow=classic;html=1;fontColor=#FFFFFF;exitX=0.437;exitY=1.167;exitDx=0;exitDy=0;exitPerimeter=0;" parent="1" source="12" edge="1">
                    <mxGeometry width="50" height="50" relative="1" as="geometry">
                        <mxPoint x="520" y="630" as="sourcePoint"/>
                        <mxPoint x="570" y="580" as="targetPoint"/>
                    </mxGeometry>
                </mxCell>
                <mxCell id="21" value="paragraph component&lt;br&gt;props = lat &amp;amp; long" style="text;html=1;strokeColor=none;fillColor=none;align=center;verticalAlign=middle;whiteSpace=wrap;rounded=0;fontColor=#FFFFFF;" parent="1" vertex="1">
                    <mxGeometry x="579" y="555" width="131" height="70" as="geometry"/>
                </mxCell>
                <UserObject label="https://openweathermap.org/current#name" link="https://openweathermap.org/current#name" id="22">
                    <mxCell style="text;whiteSpace=wrap;html=1;fontColor=#FFFFFF;" parent="1" vertex="1">
                        <mxGeometry x="10" y="10" width="250" height="30" as="geometry"/>
                    </mxCell>
                </UserObject>
                <mxCell id="23" value="value state" style="rounded=1;whiteSpace=wrap;html=1;fontColor=#FFFFFF;" parent="1" vertex="1">
                    <mxGeometry x="400" y="40" width="110" height="60" as="geometry"/>
                </mxCell>
                <mxCell id="24" value="Search" style="rounded=1;html=1;shadow=0;dashed=0;whiteSpace=wrap;fontSize=10;fillColor=#333333;align=center;strokeColor=#4D4D4D;fontColor=#666666;arcSize=0;" vertex="1" parent="1">
                    <mxGeometry x="346.75" y="210" width="105.5" height="16.88" as="geometry"/>
                </mxCell>
                <mxCell id="28" value="onclick function&lt;br&gt;will take in a prop&amp;nbsp;&lt;br&gt;that will be value state &amp;amp; call the API" style="rounded=1;whiteSpace=wrap;html=1;fontColor=#FFFFFF;" vertex="1" parent="1">
                    <mxGeometry x="670" y="50" width="110" height="60" as="geometry"/>
                </mxCell>
            </root>
        </mxGraphModel>
    </diagram>
</mxfile>